<?xml version="1.0" encoding="utf-8"?>
<?xml-stylesheet type="text/xsl" href="rss1.xsl"?>
<rss version="2.0" xmlns:atom="http://www.w3.org/2005/Atom" xmlns:content="http://purl.org/rss/1.0/modules/content/" xmlns:dc="http://purl.org/dc/elements/1.1/" xmlns:media="http://search.yahoo.com/mrss/">
<channel>
 <title>Getty</title>
 <link>http://www.gettyimg.com/</link>
 <atom:link href="http://www.gettyimg.com/" rel="self" type="application/rss+xml" />

 
                <item>
                <title><![CDATA[【Cinema Center】MOVIE - Ready.Player.One.2018.1080p.AMZN.WEB-DL.DDP5.1.H.264-Samuel]]></title>
                <link><![CDATA[https://sharemania.us/threads/ready-player-one-2018-1080p-amzn-web-dl-ddp5-1-h-264-samuel.235757/]]></link>
                <description><![CDATA[<article>
<blockquote class="messageText SelectQuoteContainer ugc baseHtml">
<div style="text-align: center"><b><span style="font-size: 26px">Ready Player One</span></b><br>
<img src="https://i.imgur.com/xOWM7eb.jpg" class="bbCodeImage LbImage" alt="[​IMG]" data-url="https://i.imgur.com/xOWM7eb.jpg" style=""><br>
<b><a href="https://i.imgur.com/rTxxBFd.jpg" target="_blank" class="externalLink" rel="nofollow">Alternate Artwork 1</a></b> | <b><a href="https://i.imgur.com/dTdFlZc.jpg" target="_blank" class="externalLink" rel="nofollow">Alternate Artwork 2</a></b> | <b><a href="https://i.imgur.com/FG1stj7.jpg" target="_blank" class="externalLink" rel="nofollow">Alternate Artwork 3</a></b> | <b><a href="https://i.imgur.com/xdT0yiN.jpg" target="_blank" class="externalLink" rel="nofollow">Alternate Artwork 4</a></b> | <b><a href="https://i.imgur.com/XeypIh2.jpg" target="_blank" class="externalLink" rel="nofollow">Alternate Artwork 5</a></b> | <b><a href="https://i.imgur.com/9DE95es.jpg" target="_blank" class="externalLink" rel="nofollow">Poster 1</a></b> | <b><a href="https://i.imgur.com/zsZ8ayU.jpg" target="_blank" class="externalLink" rel="nofollow">Poster 2</a></b> | <b><a href="https://i.imgur.com/mVDz2sB.jpg" target="_blank" class="externalLink" rel="nofollow">Poster 3</a></b><br>
<br>
2 h 14 min • 2018 <img src="https://i.imgur.com/BgPoepX.png" class="bbCodeImage LbImage" alt="[​IMG]" data-url="https://i.imgur.com/BgPoepX.png" style=""> <img src="https://i.imgur.com/glJkzhO.png" class="bbCodeImage LbImage" alt="[​IMG]" data-url="https://i.imgur.com/glJkzhO.png" style=""> <img src="https://i.imgur.com/zjBlkb0.png" class="bbCodeImage LbImage" alt="[​IMG]" data-url="https://i.imgur.com/zjBlkb0.png" style=""> <img src="https://i.imgur.com/yJn4urc.png" class="bbCodeImage LbImage" alt="[​IMG]" data-url="https://i.imgur.com/yJn4urc.png" style=""><br>
<br>
<div class="bbCodeBlock bbCodeQuote">
<aside>
<blockquote class="quoteContainer"><div class="quote"><b><span style="font-size: 15px"><span style="font-family: 'Arial'">Description</span></span></b><br>
When the creator of a virtual reality universe called the OASIS dies, he leaves his immense fortune to the first person to find a digital Easter egg he has hidden somewhere in the OASIS, sparking a contest that grips the entire world.</div><div class="quoteExpand">Click to expand...</div></blockquote>
</aside>
</div>
<div class="bbCodeBlock bbCodeQuote">
<aside>
<blockquote class="quoteContainer"><div class="quote"><span style="font-family: 'Arial'"><span style="font-size: 15px"><b>Trailers</b></span></span><br>
<span data-s9e-mediaembed="googledrive" style="display:inline-block;width:100%;max-width:640px"><span style="display:block;overflow:hidden;position:relative;padding-bottom:75%"><iframe allowfullscreen="" loading="lazy" scrolling="no" src="//drive.google.com/file/d/1rxCKBwgnSQFPWrUqiHFRregRbjmYD478/preview" style="border:0;height:100%;left:0;position:absolute;width:100%"></iframe></span></span></div><div class="quoteExpand quoteCut">Click to expand...</div></blockquote>
</aside>
</div>
<div class="bbCodeBlock bbCodeQuote">
<aside>
<blockquote class="quoteContainer"><div class="quote"><span style="font-family: 'Arial'"><span style="font-size: 15px"><b>Details</b></span></span><br>
<b>Genres:</b> Action • Adventure • Electrifying • Harrowing</div><div class="quoteExpand">Click to expand...</div></blockquote>
</aside>
</div>
<div class="bbCodeBlock bbCodeQuote">
<aside>
<blockquote class="quoteContainer"><div class="quote"><b><span style="font-size: 15px"><span style="font-family: 'Arial'">More Details</span></span></b><br>
<b>Content advisory:</b> Violence, alcohol use, foul language, sexual content<br>
<b>Audio languages:</b> English Dialogue Boost: Medium, English [Audio Description], English, English Dialogue Boost: High, Deutsch, Polski, Italiano, Español (Latinoamérica), Português, Español (España), 日本語, Français (France), Français (Canada)<br>
<b>Subtitles:</b> English [CC], Deutsch [UT], Español (Latinoamérica), Español (Latinoamérica) [CC], Español (España) [CC], Français (France) [CC], Italiano [CC], Nederlands [CC], Polski, Português, Português [SDH], Svenska<br>
<b>Directors:</b> Steven Spielberg<br>
<b>Producers:</b> Adam Somner, Daniel Lupi, Chris Defaria, Bruce Berman, Donald De Line, Kristie Macosko Krieger, Steven Spielberg, Dan Farah<br>
<b>Starring:</b> Tye Sheridan, Olivia Cooke, Ben Mendelsohn<br>
<b>Studio:</b> WARNER BROS.</div><div class="quoteExpand quoteCut">Click to expand...</div></blockquote>
</aside>
</div>
<div class="bbCodeBlock bbCodeQuote">
<aside>
<blockquote class="quoteContainer"><div class="quote"><b><span style="font-size: 15px"><span style="font-family: 'Arial'">Source</span></span></b><br>
<img src="https://i.imgur.com/UquWuUD.png" class="bbCodeImage LbImage" alt="[​IMG]" data-url="https://i.imgur.com/UquWuUD.png" style=""></div><div class="quoteExpand">Click to expand...</div></blockquote>
</aside>
</div>
<div class="bbCodeBlock bbCodeQuote">
<aside>
<blockquote class="quoteContainer"><div class="quote"><b><span style="font-size: 15px">Release Name</span></b><br>
Ready.Player.One.2018.1080p.AMZN.WEB-DL.DDP5.1.H.264-Samuel</div><div class="quoteExpand">Click to expand...</div></blockquote>
</aside>
</div>
<div class="ToggleTriggerAnchor bbCodeSpoilerContainer">
<button type="button" class="button bbCodeSpoilerButton ToggleTrigger Tooltip JsOnly" data-target="> .SpoilerTarget"><span>Spoiler: <span class="SpoilerTitle">Media Information</span></span></button>
<div class="SpoilerTarget bbCodeSpoilerText">General<br>
Complete name : Ready.Player.One.2018.1080p.AMZN.WEB-DL.DDP5.1.H.264-Samuel.mkv<br>
Format : Matroska<br>
Format version : Version 4<br>
File size : 15.2 GiB<br>
Duration : 2 h 20 min<br>
Overall bit rate : 15.5 Mb/s<br>
Frame rate : 23.976 FPS<br>
Encoded date : 2024-01-13 12:00:36 UTC<br>
Writing application : mkvmerge v72.0.0 ('Minuano (Six-eight)') 64-bit<br>
Writing library : libebml v1.4.4 + libmatroska v1.7.1<br>
<br>
Video<br>
ID : 1<br>
Format : AVC<br>
Format/Info : Advanced Video Codec<br>
Format profile : High@L4<br>
Format settings : CABAC / 4 Ref Frames<br>
Format settings, CABAC : Yes<br>
Format settings, Reference frames : 4 frames<br>
Codec ID : V_MPEG4/ISO/AVC<br>
Duration : 2 h 20 min<br>
Bit rate mode : Constant<br>
Bit rate : 8 488 kb/s<br>
Nominal bit rate : 10 000 kb/s<br>
Width : 1 920 pixels<br>
Height : 800 pixels<br>
Display aspect ratio : 2.40:1<br>
Frame rate mode : Constant<br>
Frame rate : 23.976 (24000/1001) FPS<br>
Color space : YUV<br>
Chroma subsampling : 4:2:0<br>
Bit depth : 8 bits<br>
Scan type : Progressive<br>
Bits/(Pixel*Frame) : 0.230<br>
Stream size : 8.30 GiB (55%)<br>
Default : Yes<br>
Forced : No<br>
Color range : Limited<br>
Color primaries : BT.709<br>
Transfer characteristics : BT.709<br>
Matrix coefficients : BT.709<br>
<br>
Audio #1<br>
ID : 2<br>
Format : E-AC-3<br>
Format/Info : Enhanced AC-3<br>
Commercial name : Dolby Digital Plus<br>
Codec ID : A_EAC3<br>
Duration : 2 h 20 min<br>
Bit rate mode : Constant<br>
Bit rate : 640 kb/s<br>
Channel(s) : 6 channels<br>
Channel layout : L R C LFE Ls Rs<br>
Sampling rate : 48.0 kHz<br>
Frame rate : 31.250 FPS (1536 SPF)<br>
Compression mode : Lossy<br>
Stream size : 641 MiB (4%)<br>
Language : German<br>
Service kind : Complete Main<br>
Default : Yes<br>
Forced : No<br>
<br>
Audio #2<br>
ID : 3<br>
Format : E-AC-3<br>
Format/Info : Enhanced AC-3<br>
Commercial name : Dolby Digital Plus<br>
Codec ID : A_EAC3<br>
Duration : 2 h 20 min<br>
Bit rate mode : Constant<br>
Bit rate : 640 kb/s<br>
Channel(s) : 6 channels<br>
Channel layout : L R C LFE Ls Rs<br>
Sampling rate : 48.0 kHz<br>
Frame rate : 31.250 FPS (1536 SPF)<br>
Compression mode : Lossy<br>
Stream size : 641 MiB (4%)<br>
Language : English<br>
Service kind : Complete Main<br>
Default : No<br>
Forced : No<br>
<br>
Audio #3<br>
ID : 4<br>
Format : E-AC-3<br>
Format/Info : Enhanced AC-3<br>
Commercial name : Dolby Digital Plus<br>
Codec ID : A_EAC3<br>
Duration : 2 h 20 min<br>
Bit rate mode : Constant<br>
Bit rate : 640 kb/s<br>
Channel(s) : 6 channels<br>
Channel layout : L R C LFE Ls Rs<br>
Sampling rate : 48.0 kHz<br>
Frame rate : 31.250 FPS (1536 SPF)<br>
Compression mode : Lossy<br>
Stream size : 641 MiB (4%)<br>
Title : Latin American<br>
Language : Spanish<br>
Service kind : Complete Main<br>
Default : No<br>
Forced : No<br>
<br>
Audio #4<br>
ID : 5<br>
Format : E-AC-3<br>
Format/Info : Enhanced AC-3<br>
Commercial name : Dolby Digital Plus<br>
Codec ID : A_EAC3<br>
Duration : 2 h 20 min<br>
Bit rate mode : Constant<br>
Bit rate : 640 kb/s<br>
Channel(s) : 6 channels<br>
Channel layout : L R C LFE Ls Rs<br>
Sampling rate : 48.0 kHz<br>
Frame rate : 31.250 FPS (1536 SPF)<br>
Compression mode : Lossy<br>
Stream size : 641 MiB (4%)<br>
Title : European<br>
Language : Spanish<br>
Service kind : Complete Main<br>
Default : No<br>
Forced : No<br>
<br>
Audio #5<br>
ID : 6<br>
Format : E-AC-3<br>
Format/Info : Enhanced AC-3<br>
Commercial name : Dolby Digital Plus<br>
Codec ID : A_EAC3<br>
Duration : 2 h 20 min<br>
Bit rate mode : Constant<br>
Bit rate : 640 kb/s<br>
Channel(s) : 6 channels<br>
Channel layout : L R C LFE Ls Rs<br>
Sampling rate : 48.0 kHz<br>
Frame rate : 31.250 FPS (1536 SPF)<br>
Compression mode : Lossy<br>
Stream size : 641 MiB (4%)<br>
Title : Canadian<br>
Language : French<br>
Service kind : Complete Main<br>
Default : No<br>
Forced : No<br>
<br>
Audio #6<br>
ID : 7<br>
Format : E-AC-3<br>
Format/Info : Enhanced AC-3<br>
Commercial name : Dolby Digital Plus<br>
Codec ID : A_EAC3<br>
Duration : 2 h 20 min<br>
Bit rate mode : Constant<br>
Bit rate : 640 kb/s<br>
Channel(s) : 6 channels<br>
Channel layout : L R C LFE Ls Rs<br>
Sampling rate : 48.0 kHz<br>
Frame rate : 31.250 FPS (1536 SPF)<br>
Compression mode : Lossy<br>
Stream size : 641 MiB (4%)<br>
Title : European<br>
Language : French<br>
Service kind : Complete Main<br>
Default : No<br>
Forced : No<br>
<br>
Audio #7<br>
ID : 8<br>
Format : E-AC-3<br>
Format/Info : Enhanced AC-3<br>
Commercial name : Dolby Digital Plus<br>
Codec ID : A_EAC3<br>
Duration : 2 h 20 min<br>
Bit rate mode : Constant<br>
Bit rate : 640 kb/s<br>
Channel(s) : 6 channels<br>
Channel layout : L R C LFE Ls Rs<br>
Sampling rate : 48.0 kHz<br>
Frame rate : 31.250 FPS (1536 SPF)<br>
Compression mode : Lossy<br>
Stream size : 641 MiB (4%)<br>
Language : Italian<br>
Service kind : Complete Main<br>
Default : No<br>
Forced : No<br>
<br>
Audio #8<br>
ID : 9<br>
Format : E-AC-3<br>
Format/Info : Enhanced AC-3<br>
Commercial name : Dolby Digital Plus<br>
Codec ID : A_EAC3<br>
Duration : 2 h 20 min<br>
Bit rate mode : Constant<br>
Bit rate : 640 kb/s<br>
Channel(s) : 6 channels<br>
Channel layout : L R C LFE Ls Rs<br>
Sampling rate : 48.0 kHz<br>
Frame rate : 31.250 FPS (1536 SPF)<br>
Compression mode : Lossy<br>
Stream size : 641 MiB (4%)<br>
Language : Japanese<br>
Service kind : Complete Main<br>
Default : No<br>
Forced : No<br>
<br>
Audio #9<br>
ID : 10<br>
Format : E-AC-3<br>
Format/Info : Enhanced AC-3<br>
Commercial name : Dolby Digital Plus<br>
Codec ID : A_EAC3<br>
Duration : 2 h 20 min<br>
Bit rate mode : Constant<br>
Bit rate : 640 kb/s<br>
Channel(s) : 6 channels<br>
Channel layout : L R C LFE Ls Rs<br>
Sampling rate : 48.0 kHz<br>
Frame rate : 31.250 FPS (1536 SPF)<br>
Compression mode : Lossy<br>
Stream size : 641 MiB (4%)<br>
Language : Polish<br>
Service kind : Complete Main<br>
Default : No<br>
Forced : No<br>
<br>
Audio #10<br>
ID : 11<br>
Format : E-AC-3<br>
Format/Info : Enhanced AC-3<br>
Commercial name : Dolby Digital Plus<br>
Codec ID : A_EAC3<br>
Duration : 2 h 20 min<br>
Bit rate mode : Constant<br>
Bit rate : 640 kb/s<br>
Channel(s) : 6 channels<br>
Channel layout : L R C LFE Ls Rs<br>
Sampling rate : 48.0 kHz<br>
Frame rate : 31.250 FPS (1536 SPF)<br>
Compression mode : Lossy<br>
Stream size : 641 MiB (4%)<br>
Title : Brazilian<br>
Language : Portuguese<br>
Service kind : Complete Main<br>
Default : No<br>
Forced : No<br>
<br>
Audio #11<br>
ID : 12<br>
Format : E-AC-3<br>
Format/Info : Enhanced AC-3<br>
Commercial name : Dolby Digital Plus<br>
Codec ID : A_EAC3<br>
Duration : 2 h 20 min<br>
Bit rate mode : Constant<br>
Bit rate : 640 kb/s<br>
Channel(s) : 6 channels<br>
Channel layout : L R C LFE Ls Rs<br>
Sampling rate : 48.0 kHz<br>
Frame rate : 31.250 FPS (1536 SPF)<br>
Compression mode : Lossy<br>
Stream size : 641 MiB (4%)<br>
Title : Descriptive<br>
Language : English<br>
Service kind : Complete Main<br>
Default : No<br>
Forced : No<br>
<br>
Text #1<br>
ID : 13<br>
Format : UTF-8<br>
Codec ID : S_TEXT/UTF8<br>
Codec ID/Info : UTF-8 Plain Text<br>
Duration : 2 h 8 min<br>
Bit rate : 61 b/s<br>
Frame rate : 0.239 FPS<br>
Count of elements : 1840<br>
Stream size : 57.7 KiB (0%)<br>
Title : SDH<br>
Language : English<br>
Default : No<br>
Forced : No<br>
<br>
Text #2<br>
ID : 14<br>
Format : UTF-8<br>
Codec ID : S_TEXT/UTF8<br>
Codec ID/Info : UTF-8 Plain Text<br>
Duration : 2 h 8 min<br>
Bit rate : 67 b/s<br>
Frame rate : 0.240 FPS<br>
Count of elements : 1848<br>
Stream size : 63.6 KiB (0%)<br>
Title : SDH<br>
Language : German<br>
Default : No<br>
Forced : No<br>
<br>
Text #3<br>
ID : 15<br>
Format : UTF-8<br>
Codec ID : S_TEXT/UTF8<br>
Codec ID/Info : UTF-8 Plain Text<br>
Duration : 2 h 18 min<br>
Bit rate : 47 b/s<br>
Frame rate : 0.193 FPS<br>
Count of elements : 1613<br>
Stream size : 48.7 KiB (0%)<br>
Title : Latin American<br>
Language : Spanish<br>
Default : No<br>
Forced : No<br>
<br>
Text #4<br>
ID : 16<br>
Format : UTF-8<br>
Codec ID : S_TEXT/UTF8<br>
Codec ID/Info : UTF-8 Plain Text<br>
Duration : 2 h 18 min<br>
Bit rate : 47 b/s<br>
Frame rate : 0.193 FPS<br>
Count of elements : 1613<br>
Stream size : 48.7 KiB (0%)<br>
Title : Latin American (SDH)<br>
Language : Spanish<br>
Default : No<br>
Forced : No<br>
<br>
Text #5<br>
ID : 17<br>
Format : UTF-8<br>
Codec ID : S_TEXT/UTF8<br>
Codec ID/Info : UTF-8 Plain Text<br>
Duration : 2 h 18 min<br>
Bit rate : 51 b/s<br>
Frame rate : 0.193 FPS<br>
Count of elements : 1605<br>
Stream size : 52.3 KiB (0%)<br>
Title : European (SDH)<br>
Language : Spanish<br>
Default : No<br>
Forced : No<br>
<br>
Text #6<br>
ID : 18<br>
Format : UTF-8<br>
Codec ID : S_TEXT/UTF8<br>
Codec ID/Info : UTF-8 Plain Text<br>
Duration : 2 h 18 min<br>
Bit rate : 47 b/s<br>
Frame rate : 0.192 FPS<br>
Count of elements : 1600<br>
Stream size : 47.9 KiB (0%)<br>
Title : European (SDH)<br>
Language : French<br>
Default : No<br>
Forced : No<br>
<br>
Text #7<br>
ID : 19<br>
Format : UTF-8<br>
Codec ID : S_TEXT/UTF8<br>
Codec ID/Info : UTF-8 Plain Text<br>
Duration : 2 h 19 min<br>
Bit rate : 55 b/s<br>
Frame rate : 0.226 FPS<br>
Count of elements : 1888<br>
Stream size : 56.2 KiB (0%)<br>
Title : SDH<br>
Language : Italian<br>
Default : No<br>
Forced : No<br>
<br>
Text #8<br>
ID : 20<br>
Format : UTF-8<br>
Codec ID : S_TEXT/UTF8<br>
Codec ID/Info : UTF-8 Plain Text<br>
Duration : 2 h 18 min<br>
Bit rate : 45 b/s<br>
Frame rate : 0.153 FPS<br>
Count of elements : 1276<br>
Stream size : 46.3 KiB (0%)<br>
Title : SDH<br>
Language : Dutch<br>
Default : No<br>
Forced : No<br>
<br>
Text #9<br>
ID : 21<br>
Format : UTF-8<br>
Codec ID : S_TEXT/UTF8<br>
Codec ID/Info : UTF-8 Plain Text<br>
Duration : 2 h 18 min<br>
Bit rate : 50 b/s<br>
Frame rate : 0.177 FPS<br>
Count of elements : 1472<br>
Stream size : 51.7 KiB (0%)<br>
Language : Polish<br>
Default : No<br>
Forced : No<br>
<br>
Text #10<br>
ID : 22<br>
Format : UTF-8<br>
Codec ID : S_TEXT/UTF8<br>
Codec ID/Info : UTF-8 Plain Text<br>
Duration : 2 h 18 min<br>
Bit rate : 49 b/s<br>
Frame rate : 0.193 FPS<br>
Count of elements : 1607<br>
Stream size : 50.7 KiB (0%)<br>
Title : Brazilian<br>
Language : Portuguese<br>
Default : No<br>
Forced : No<br>
<br>
Text #11<br>
ID : 23<br>
Format : UTF-8<br>
Codec ID : S_TEXT/UTF8<br>
Codec ID/Info : UTF-8 Plain Text<br>
Duration : 2 h 18 min<br>
Bit rate : 49 b/s<br>
Frame rate : 0.193 FPS<br>
Count of elements : 1607<br>
Stream size : 50.7 KiB (0%)<br>
Title : Brazilian (SDH)<br>
Language : Portuguese<br>
Default : No<br>
Forced : No<br>
<br>
Text #12<br>
ID : 24<br>
Format : UTF-8<br>
Codec ID : S_TEXT/UTF8<br>
Codec ID/Info : UTF-8 Plain Text<br>
Duration : 2 h 18 min<br>
Bit rate : 50 b/s<br>
Frame rate : 0.193 FPS<br>
Count of elements : 1606<br>
Stream size : 51.5 KiB (0%)<br>
Language : Swedish<br>
Default : No<br>
Forced : No<br>
<br>
Menu<br>
00:00:00.000 : en:Studio Logos<br>
00:00:27.000 : en:Tutorial<br>
00:10:02.000 : en<img src="styles/default/xenforo/smilies/grimace-48.png" class="mceSmilie" alt=":p" title="Stick Out Tongue    :p">arzival races for the first key<br>
00:16:55.000 : en:Aech repairs Art3mis' bike<br>
00:22:40.000 : en<img src="styles/default/xenforo/smilies/grimace-48.png" class="mceSmilie" alt=":p" title="Stick Out Tongue    :p">arzival goes backwards<br>
00:28:24.000 : en:Sorrento answers to the board members<br>
00:33:30.000 : en:Halliday describes a date<br>
00:40:36.000 : en<img src="styles/default/xenforo/smilies/grimace-48.png" class="mceSmilie" alt=":p" title="Stick Out Tongue    :p">arzival and Art3mis go dancing<br>
00:50:07.000 : en:Sorrento makes Wade an offer<br>
00:59:31.000 : en:Art3mis and Parzival meet face to face<br>
01:02:31.000 : en:Jade Key Challenge<br>
01:11:54.000 : en:IOI locates Wade<br>
01:18:21.000 : en:The Hi-Five take over Sorrento's feed<br>
01:28:23.000 : en:Art3mis brings down the barrier<br>
01:37:32.000 : en:Gunters push through the Sixer line<br>
01:46:29.000 : en<img src="styles/default/xenforo/smilies/grimace-48.png" class="mceSmilie" alt=":p" title="Stick Out Tongue    :p">arzival takes on the final challenge<br>
01:55:12.000 : en:Halliday bestows the contest reward<br>
02:04:18.000 : en:The Hi-Five reap their rewards<br>
02:09:15.000 : en:End Credits</div>
</div><br>
<b>Chapters Menu</b><br>
<div class="bbCodeBlock bbCodeCode">
<div class="type">Code:</div>
<pre><div style="text-align: left">
Menu
00:00:00.000                             : en:Studio Logos
00:00:27.000                             : en:Tutorial
00:10:02.000                             : en:Parzival races for the first key
00:16:55.000                             : en:Aech repairs Art3mis' bike
00:22:40.000                             : en:Parzival goes backwards
00:28:24.000                             : en:Sorrento answers to the board members
00:33:30.000                             : en:Halliday describes a date
00:40:36.000                             : en:Parzival and Art3mis go dancing
00:50:07.000                             : en:Sorrento makes Wade an offer
00:59:31.000                             : en:Art3mis and Parzival meet face to face
01:02:31.000                             : en:Jade Key Challenge
01:11:54.000                             : en:IOI locates Wade
01:18:21.000                             : en:The Hi-Five take over Sorrento's feed
01:28:23.000                             : en:Art3mis brings down the barrier
01:37:32.000                             : en:Gunters push through the Sixer line
01:46:29.000                             : en:Parzival takes on the final challenge
01:55:12.000                             : en:Halliday bestows the contest reward
02:04:18.000                             : en:The Hi-Five reap their rewards
02:09:15.000                             : en:End Credits
​</div></pre>
</div><div style="text-align: left"><br>
​</div><br>
<b>Screenshots</b><br>
<img src="https://i.imgur.com/MPxODmG.png" class="bbCodeImage LbImage" alt="[​IMG]" data-url="https://i.imgur.com/MPxODmG.png" style=""><br>
<br>
<b>Download</b><br>
<div class="bbCodeBlock bbCodeVfcHH HiddenContent">
<div class="attribution type">Hidden Content:</div>
<blockquote>You must reply before you can see the hidden data contained here.</blockquote>
</div></div>
<div class="messageTextEndMarker">&nbsp;</div>
</blockquote>
</article>]]></description>
                <author><![CDATA[Samuel]]></author>
                </item>

                </channel></rss>